<svg width="132" height="28" viewBox="0 0 132 28" fill="none" xmlns="http://www.w3.org/2000/svg">
<path fill-rule="evenodd" clip-rule="evenodd" d="M1 0C0.447715 0 0 0.447715 0 1V25.4053C0 25.9576 0.447715 26.4053 1 26.4053H14.96C15.5123 26.4053 15.96 25.9576 15.96 25.4053V20.135C15.96 19.5827 15.5123 19.135 14.96 19.135H8.9422C8.38992 19.135 7.9422 18.6873 7.9422 18.135V1C7.9422 0.447716 7.49449 0 6.9422 0H1ZM47.04 1C47.04 0.447716 47.4877 0 48.04 0H53.9822C54.5345 0 54.9822 0.447715 54.9822 1V18.135C54.9822 18.6873 55.4299 19.135 55.9822 19.135H62C62.5523 19.135 63 19.5827 63 20.135V25.4053C63 25.9576 62.5523 26.4053 62 26.4053H48.04C47.4877 26.4053 47.04 25.9576 47.04 25.4053V1Z" fill="#3C5DD1"/>
<path d="M35.7752 2C32.3448 2 29.5498 4.79504 29.5498 8.22512C29.5498 11.6547 32.3448 14.45 35.7749 14.45C39.2045 14.45 41.9998 11.655 41.9998 8.22488C42 4.79552 39.205 2 35.7749 2H35.7752ZM35.7752 3.38336C36.4114 3.382 37.0416 3.50631 37.6296 3.74915C38.2176 3.99199 38.7519 4.34859 39.2018 4.79846C39.6516 5.24833 40.0082 5.78263 40.251 6.37067C40.4938 6.95871 40.6181 7.58892 40.6167 8.22512C40.618 8.8613 40.4937 9.49148 40.2508 10.0795C40.008 10.6675 39.6514 11.2017 39.2015 11.6516C38.7516 12.1014 38.2173 12.4579 37.6293 12.7007C37.0413 12.9435 36.4111 13.0678 35.7749 13.0664C35.1388 13.0677 34.5086 12.9434 33.9207 12.7006C33.3327 12.4578 32.7985 12.1012 32.3487 11.6514C31.8988 11.2016 31.5423 10.6673 31.2995 10.0794C31.0566 9.4914 30.9323 8.86126 30.9336 8.22512C30.9323 7.58894 31.0565 6.95875 31.2993 6.37072C31.5421 5.7827 31.8987 5.24841 32.3485 4.79854C32.7983 4.34867 33.3326 3.99208 33.9206 3.74922C34.5086 3.50636 35.1387 3.38203 35.7749 3.38336H35.7752ZM33.9449 6.05216C33.8053 6.05216 33.6669 6.07967 33.5379 6.13313C33.4089 6.18659 33.2916 6.26494 33.1929 6.36372C33.0941 6.46249 33.0158 6.57975 32.9624 6.70881C32.9089 6.83786 32.8815 6.97617 32.8815 7.11584C32.8815 7.25551 32.9089 7.39382 32.9624 7.52287C33.0158 7.65192 33.0941 7.76919 33.1929 7.86796C33.2916 7.96674 33.4089 8.04509 33.5379 8.09855C33.6669 8.15201 33.8053 8.17952 33.9449 8.17952C34.0846 8.17955 34.2229 8.15206 34.352 8.09862C34.4811 8.04517 34.5984 7.96682 34.6971 7.86805C34.7959 7.76927 34.8743 7.652 34.9277 7.52293C34.9811 7.39386 35.0086 7.25553 35.0086 7.11584C35.0086 6.8338 34.8966 6.56331 34.6971 6.36387C34.4977 6.16444 34.2272 6.0524 33.9452 6.0524L33.9449 6.05216ZM37.6049 6.05216C37.4653 6.05216 37.3269 6.07967 37.1979 6.13313C37.0689 6.18659 36.9516 6.26494 36.8529 6.36372C36.7541 6.46249 36.6758 6.57975 36.6224 6.70881C36.5689 6.83786 36.5415 6.97617 36.5415 7.11584C36.5415 7.25551 36.5689 7.39382 36.6224 7.52287C36.6758 7.65192 36.7541 7.76919 36.8529 7.86796C36.9516 7.96674 37.0689 8.04509 37.1979 8.09855C37.3269 8.15201 37.4653 8.17952 37.6049 8.17952C37.7446 8.17955 37.8829 8.15206 38.012 8.09862C38.1411 8.04517 38.2584 7.96682 38.3571 7.86805C38.4559 7.76927 38.5343 7.652 38.5877 7.52293C38.6411 7.39386 38.6686 7.25553 38.6686 7.11584C38.6686 6.8338 38.5566 6.56331 38.3571 6.36387C38.1577 6.16444 37.8872 6.0524 37.6052 6.0524L37.6049 6.05216ZM33.7928 9.82592C33.6716 9.82823 33.5541 9.8682 33.4566 9.94031C33.3591 10.0124 33.2865 10.1131 33.2489 10.2283C33.2112 10.3435 33.2103 10.4676 33.2464 10.5834C33.2824 10.6991 33.3536 10.8008 33.45 10.8742C34.0498 11.3454 34.8672 11.5746 35.736 11.5894C36.6048 11.6043 37.4384 11.401 38.07 10.9604C38.1336 10.9168 38.1879 10.861 38.2299 10.7964C38.2718 10.7317 38.3005 10.6593 38.3143 10.5835C38.3281 10.5076 38.3268 10.4298 38.3103 10.3545C38.2939 10.2792 38.2628 10.2078 38.2186 10.1446C38.1745 10.0814 38.1183 10.0276 38.0533 9.98617C37.9882 9.94479 37.9156 9.91669 37.8397 9.90351C37.7637 9.89033 37.6859 9.89231 37.6107 9.90935C37.5356 9.92639 37.4645 9.95815 37.4016 10.0028C37.0474 10.25 36.4157 10.4331 35.7557 10.4218C35.096 10.4106 34.4888 10.2049 34.1717 9.95576C34.0646 9.86918 33.9303 9.82328 33.7925 9.82616L33.7928 9.82592Z" fill="#F8BC20"/>
<path d="M29.9873 2C23.365 2.0072 18 7.37744 18 14C18 20.6274 23.3726 26 30 26C36.6274 26 42 20.6274 42 14C41.9954 13.365 41.9403 12.7314 41.8354 12.1052C41.0676 13.2116 40.247 14.0077 39.1795 14.6H40.7827C40.7082 15.9827 40.3672 17.3379 39.7786 18.5912H36.5016C36.733 17.5683 36.8839 16.4761 36.948 15.3382C36.5495 15.3942 36.1471 15.4165 35.7449 15.405C35.6729 16.5294 35.5085 17.6012 35.2668 18.5914H30.6V14.6H32.532C31.1947 13.9136 30.0797 12.8886 29.4 11.6048V13.4H24.4481C24.499 11.9756 24.6984 10.627 25.0152 9.4088H28.6411C28.5737 9.0125 28.5439 8.61071 28.5521 8.2088H25.38C25.6171 7.53104 25.8912 6.9056 26.1979 6.3488C27.0936 4.7216 28.217 3.70424 29.4 3.41072V4.99184C29.9914 3.86216 30.8614 2.87336 31.9116 2.1668C31.2799 2.06024 30.6406 2.00446 30 2L29.9873 2ZM26.6352 3.73568C26.0774 4.30016 25.5768 4.98848 25.1465 5.76968C24.7433 6.50168 24.3965 7.32176 24.1116 8.20856H20.8824C22.2108 6.11912 24.2364 4.51976 26.6352 3.73568ZM20.2214 9.4088H23.7754C23.4766 10.6477 23.2934 11.9912 23.2466 13.4002H19.2173C19.2918 12.0176 19.6328 10.6621 20.2214 9.4088ZM19.2173 14.6H23.2402C23.2711 16.0054 23.437 17.349 23.7187 18.5912H20.2214C19.6328 17.3379 19.2918 15.9827 19.2173 14.6ZM24.4402 14.6H29.4V18.5912H24.9552C24.6564 17.3672 24.4738 16.0196 24.4402 14.6ZM20.8824 19.7912H24.035C24.3331 20.7716 24.707 21.6728 25.1465 22.4708C25.4916 23.0972 25.8828 23.6634 26.3114 24.1549C24.0538 23.3365 22.1508 21.7861 20.8824 19.7912ZM25.297 19.7912H29.4V24.7827C29.3261 24.7786 29.2531 24.7712 29.1797 24.7659C28.0781 24.4059 27.0379 23.4171 26.1979 21.8919C25.8552 21.2694 25.5518 20.5628 25.297 19.7912ZM30.6 19.7912H34.925C34.6706 20.563 34.367 21.2694 34.0243 21.8919C33.2016 23.3859 32.1869 24.3658 31.1105 24.7438C30.9406 24.7608 30.7704 24.7738 30.6 24.7827V19.7912ZM36.186 19.7912H39.1176C37.904 21.7007 36.1222 23.1814 34.0229 24.025C34.4078 23.5642 34.7609 23.0425 35.0755 22.4708C35.515 21.6728 35.8886 20.7714 36.186 19.7912Z" fill="#F8BC20"/>
<path d="M67.5057 25.1108C67.0881 25.1108 66.7173 25.0412 66.3935 24.902C66.0724 24.7599 65.8182 24.5469 65.6307 24.2628C65.446 23.9759 65.3537 23.6165 65.3537 23.1847C65.3537 22.821 65.4176 22.5142 65.5455 22.2642C65.6733 22.0142 65.8494 21.8111 66.0739 21.6548C66.2983 21.4986 66.5568 21.3807 66.8494 21.3011C67.142 21.2187 67.4545 21.1634 67.7869 21.1349C68.1591 21.1009 68.4588 21.0653 68.6861 21.0284C68.9134 20.9886 69.0781 20.9332 69.1804 20.8622C69.2855 20.7884 69.3381 20.6847 69.3381 20.5511V20.5298C69.3381 20.3111 69.2628 20.142 69.1122 20.0227C68.9616 19.9034 68.7585 19.8438 68.5028 19.8438C68.2273 19.8438 68.0057 19.9034 67.8381 20.0227C67.6705 20.142 67.5639 20.3068 67.5185 20.517L65.5966 20.4489C65.6534 20.0511 65.7997 19.696 66.0355 19.3835C66.2741 19.0682 66.6009 18.821 67.0156 18.642C67.4332 18.4602 67.9347 18.3693 68.5199 18.3693C68.9375 18.3693 69.3224 18.419 69.6747 18.5185C70.027 18.6151 70.3338 18.7571 70.5952 18.9446C70.8565 19.1293 71.0582 19.3565 71.2003 19.6264C71.3452 19.8963 71.4176 20.2045 71.4176 20.5511V25H69.4574V24.0881H69.4062C69.2898 24.3097 69.1406 24.4972 68.9588 24.6506C68.7798 24.804 68.5682 24.919 68.3239 24.9957C68.0824 25.0724 67.8097 25.1108 67.5057 25.1108ZM68.1491 23.7472C68.3736 23.7472 68.5753 23.7017 68.7543 23.6108C68.9361 23.5199 69.081 23.3949 69.1889 23.2358C69.2969 23.0739 69.3509 22.8864 69.3509 22.6733V22.0511C69.2912 22.0824 69.2188 22.1108 69.1335 22.1364C69.0511 22.1619 68.9602 22.1861 68.8608 22.2088C68.7614 22.2315 68.6591 22.2514 68.554 22.2685C68.4489 22.2855 68.348 22.3011 68.2514 22.3153C68.0554 22.3466 67.8878 22.3949 67.7486 22.4602C67.6122 22.5256 67.5071 22.6108 67.4332 22.7159C67.3622 22.8182 67.3267 22.9403 67.3267 23.0824C67.3267 23.2983 67.4034 23.4631 67.5568 23.5767C67.7131 23.6903 67.9105 23.7472 68.1491 23.7472ZM74.7756 21.267V25H72.6918V18.4545H74.6733V19.6562H74.7457C74.8906 19.2557 75.1378 18.9418 75.4872 18.7145C75.8366 18.4844 76.2528 18.3693 76.7358 18.3693C77.196 18.3693 77.5952 18.473 77.9332 18.6804C78.2741 18.8849 78.5384 19.1719 78.7259 19.5412C78.9162 19.9077 79.0099 20.3366 79.0071 20.8281V25H76.9233V21.2372C76.9261 20.8736 76.8338 20.5895 76.6463 20.3849C76.4616 20.1804 76.2045 20.0781 75.875 20.0781C75.6562 20.0781 75.4631 20.1264 75.2955 20.223C75.1307 20.3168 75.0028 20.4517 74.9119 20.6278C74.8239 20.804 74.7784 21.017 74.7756 21.267ZM83.3484 27.5909C82.7262 27.5909 82.1935 27.5043 81.7504 27.331C81.3072 27.1577 80.9592 26.9205 80.7063 26.6193C80.4535 26.3182 80.3015 25.9773 80.2504 25.5966L82.2234 25.4858C82.2603 25.6193 82.3285 25.7358 82.4279 25.8352C82.5302 25.9347 82.6623 26.0114 82.8242 26.0653C82.989 26.1193 83.1822 26.1463 83.4038 26.1463C83.7532 26.1463 84.0415 26.0611 84.2688 25.8906C84.4989 25.723 84.614 25.429 84.614 25.0085V23.858H84.5415C84.4592 24.0597 84.3342 24.2401 84.1665 24.3991C83.9989 24.5582 83.7901 24.6832 83.5401 24.7741C83.293 24.8651 83.0089 24.9105 82.6879 24.9105C82.2106 24.9105 81.7731 24.7997 81.3754 24.5781C80.9805 24.3537 80.6637 24.0071 80.4251 23.5384C80.1893 23.0668 80.0714 22.4602 80.0714 21.7188C80.0714 20.9545 80.1935 20.3253 80.4379 19.831C80.6822 19.3338 81.0018 18.9659 81.3967 18.7273C81.7944 18.4886 82.2219 18.3693 82.6793 18.3693C83.0231 18.3693 83.3171 18.429 83.5614 18.5483C83.8086 18.6648 84.0117 18.8153 84.1708 19C84.3299 19.1847 84.4506 19.3764 84.533 19.5753H84.5927V18.4545H86.668V25.0256C86.668 25.5795 86.5288 26.0469 86.2504 26.4276C85.9719 26.8082 85.5827 27.0966 85.0827 27.2926C84.5827 27.4915 84.0046 27.5909 83.3484 27.5909ZM83.4123 23.3935C83.6651 23.3935 83.881 23.3267 84.06 23.1932C84.239 23.0597 84.3768 22.8679 84.4734 22.6179C84.57 22.3679 84.6183 22.0682 84.6183 21.7188C84.6183 21.3636 84.57 21.0582 84.4734 20.8026C84.3796 20.544 84.2418 20.3452 84.06 20.206C83.881 20.0668 83.6651 19.9972 83.4123 19.9972C83.1538 19.9972 82.935 20.0682 82.756 20.2102C82.5771 20.3523 82.4407 20.5526 82.3469 20.8111C82.256 21.0668 82.2106 21.3693 82.2106 21.7188C82.2106 22.0682 82.2575 22.3679 82.3512 22.6179C82.445 22.8679 82.5799 23.0597 82.756 23.1932C82.935 23.3267 83.1538 23.3935 83.4123 23.3935ZM92.2195 22.1747V18.4545H94.299V25H92.3132V23.7812H92.245C92.1001 24.1818 91.853 24.5 91.5036 24.7358C91.157 24.9687 90.7379 25.0852 90.2464 25.0852C89.8004 25.0852 89.4084 24.983 89.0703 24.7784C88.7322 24.5739 88.4695 24.2884 88.282 23.9219C88.0945 23.5526 87.9993 23.1207 87.9964 22.6264V18.4545H90.0803V22.2173C90.0831 22.5724 90.1768 22.8523 90.3615 23.0568C90.5462 23.2614 90.7976 23.3636 91.1158 23.3636C91.3232 23.3636 91.5092 23.3182 91.674 23.2273C91.8416 23.1335 91.9737 22.9986 92.0703 22.8224C92.1697 22.6435 92.2195 22.4276 92.2195 22.1747ZM97.4705 25.1108C97.0529 25.1108 96.6822 25.0412 96.3583 24.902C96.0373 24.7599 95.783 24.5469 95.5955 24.2628C95.4109 23.9759 95.3185 23.6165 95.3185 23.1847C95.3185 22.821 95.3825 22.5142 95.5103 22.2642C95.6381 22.0142 95.8143 21.8111 96.0387 21.6548C96.2631 21.4986 96.5217 21.3807 96.8143 21.3011C97.1069 21.2187 97.4194 21.1634 97.7518 21.1349C98.1239 21.1009 98.4237 21.0653 98.6509 21.0284C98.8782 20.9886 99.043 20.9332 99.1452 20.8622C99.2504 20.7884 99.3029 20.6847 99.3029 20.5511V20.5298C99.3029 20.3111 99.2276 20.142 99.0771 20.0227C98.9265 19.9034 98.7234 19.8438 98.4677 19.8438C98.1921 19.8438 97.9705 19.9034 97.8029 20.0227C97.6353 20.142 97.5288 20.3068 97.4833 20.517L95.5614 20.4489C95.6183 20.0511 95.7646 19.696 96.0004 19.3835C96.239 19.0682 96.5657 18.821 96.9805 18.642C97.3981 18.4602 97.8995 18.3693 98.4847 18.3693C98.9023 18.3693 99.2873 18.419 99.6396 18.5185C99.9918 18.6151 100.299 18.7571 100.56 18.9446C100.821 19.1293 101.023 19.3565 101.165 19.6264C101.31 19.8963 101.382 20.2045 101.382 20.5511V25H99.4222V24.0881H99.3711C99.2546 24.3097 99.1055 24.4972 98.9237 24.6506C98.7447 24.804 98.533 24.919 98.2887 24.9957C98.0472 25.0724 97.7745 25.1108 97.4705 25.1108ZM98.114 23.7472C98.3384 23.7472 98.5401 23.7017 98.7191 23.6108C98.9009 23.5199 99.0458 23.3949 99.1538 23.2358C99.2617 23.0739 99.3157 22.8864 99.3157 22.6733V22.0511C99.256 22.0824 99.1836 22.1108 99.0984 22.1364C99.016 22.1619 98.9251 22.1861 98.8256 22.2088C98.7262 22.2315 98.6239 22.2514 98.5188 22.2685C98.4137 22.2855 98.3129 22.3011 98.2163 22.3153C98.0202 22.3466 97.8526 22.3949 97.7134 22.4602C97.5771 22.5256 97.4719 22.6108 97.3981 22.7159C97.3271 22.8182 97.2915 22.9403 97.2915 23.0824C97.2915 23.2983 97.3683 23.4631 97.5217 23.5767C97.6779 23.6903 97.8754 23.7472 98.114 23.7472ZM104.74 21.267V25H102.657V18.4545H104.638V19.6562H104.711C104.855 19.2557 105.103 18.9418 105.452 18.7145C105.801 18.4844 106.218 18.3693 106.701 18.3693C107.161 18.3693 107.56 18.473 107.898 18.6804C108.239 18.8849 108.503 19.1719 108.691 19.5412C108.881 19.9077 108.975 20.3366 108.972 20.8281V25H106.888V21.2372C106.891 20.8736 106.799 20.5895 106.611 20.3849C106.426 20.1804 106.169 20.0781 105.84 20.0781C105.621 20.0781 105.428 20.1264 105.26 20.223C105.096 20.3168 104.968 20.4517 104.877 20.6278C104.789 20.804 104.743 21.017 104.74 21.267ZM113.313 27.5909C112.691 27.5909 112.158 27.5043 111.715 27.331C111.272 27.1577 110.924 26.9205 110.671 26.6193C110.418 26.3182 110.266 25.9773 110.215 25.5966L112.188 25.4858C112.225 25.6193 112.293 25.7358 112.393 25.8352C112.495 25.9347 112.627 26.0114 112.789 26.0653C112.954 26.1193 113.147 26.1463 113.369 26.1463C113.718 26.1463 114.006 26.0611 114.234 25.8906C114.464 25.723 114.579 25.429 114.579 25.0085V23.858H114.506C114.424 24.0597 114.299 24.2401 114.131 24.3991C113.964 24.5582 113.755 24.6832 113.505 24.7741C113.258 24.8651 112.974 24.9105 112.653 24.9105C112.175 24.9105 111.738 24.7997 111.34 24.5781C110.945 24.3537 110.629 24.0071 110.39 23.5384C110.154 23.0668 110.036 22.4602 110.036 21.7188C110.036 20.9545 110.158 20.3253 110.403 19.831C110.647 19.3338 110.967 18.9659 111.362 18.7273C111.759 18.4886 112.187 18.3693 112.644 18.3693C112.988 18.3693 113.282 18.429 113.526 18.5483C113.773 18.6648 113.977 18.8153 114.136 19C114.295 19.1847 114.415 19.3764 114.498 19.5753H114.558V18.4545H116.633V25.0256C116.633 25.5795 116.494 26.0469 116.215 26.4276C115.937 26.8082 115.548 27.0966 115.048 27.2926C114.548 27.4915 113.969 27.5909 113.313 27.5909ZM113.377 23.3935C113.63 23.3935 113.846 23.3267 114.025 23.1932C114.204 23.0597 114.342 22.8679 114.438 22.6179C114.535 22.3679 114.583 22.0682 114.583 21.7188C114.583 21.3636 114.535 21.0582 114.438 20.8026C114.344 20.544 114.207 20.3452 114.025 20.206C113.846 20.0668 113.63 19.9972 113.377 19.9972C113.119 19.9972 112.9 20.0682 112.721 20.2102C112.542 20.3523 112.406 20.5526 112.312 20.8111C112.221 21.0668 112.175 21.3693 112.175 21.7188C112.175 22.0682 112.222 22.3679 112.316 22.6179C112.41 22.8679 112.545 23.0597 112.721 23.1932C112.9 23.3267 113.119 23.3935 113.377 23.3935ZM121.021 25.1236C120.336 25.1236 119.745 24.9886 119.248 24.7188C118.754 24.446 118.373 24.0582 118.106 23.5554C117.842 23.0497 117.71 22.4489 117.71 21.7528C117.71 21.0767 117.843 20.4858 118.11 19.9801C118.377 19.4716 118.754 19.0767 119.24 18.7955C119.725 18.5114 120.298 18.3693 120.957 18.3693C121.423 18.3693 121.849 18.4418 122.235 18.5866C122.622 18.7315 122.956 18.946 123.237 19.2301C123.518 19.5142 123.737 19.8651 123.893 20.2827C124.049 20.6974 124.127 21.1733 124.127 21.7102V22.2301H118.439V21.0199H122.189C122.186 20.7983 122.133 20.6009 122.031 20.4276C121.929 20.2543 121.788 20.1193 121.609 20.0227C121.433 19.9233 121.23 19.8736 121 19.8736C120.767 19.8736 120.558 19.9261 120.373 20.0312C120.189 20.1335 120.042 20.2741 119.934 20.4531C119.826 20.6293 119.77 20.8295 119.764 21.054V22.2855C119.764 22.5526 119.816 22.7869 119.922 22.9886C120.027 23.1875 120.176 23.3423 120.369 23.4531C120.562 23.5639 120.792 23.6193 121.059 23.6193C121.244 23.6193 121.412 23.5937 121.562 23.5426C121.713 23.4915 121.842 23.4162 121.95 23.3168C122.058 23.2173 122.139 23.0952 122.193 22.9503L124.106 23.0057C124.027 23.4347 123.852 23.8082 123.582 24.1264C123.315 24.4418 122.964 24.6875 122.529 24.8636C122.095 25.0369 121.592 25.1236 121.021 25.1236ZM130.906 20.4531L128.993 20.5043C128.973 20.3679 128.919 20.2472 128.831 20.142C128.743 20.0341 128.628 19.9503 128.486 19.8906C128.347 19.8281 128.185 19.7969 128 19.7969C127.759 19.7969 127.553 19.8452 127.382 19.9418C127.214 20.0384 127.132 20.169 127.135 20.3338C127.132 20.4616 127.183 20.5724 127.288 20.6662C127.396 20.7599 127.588 20.8352 127.864 20.892L129.125 21.1307C129.778 21.2557 130.264 21.4631 130.582 21.7528C130.903 22.0426 131.065 22.4261 131.068 22.9034C131.065 23.3523 130.932 23.7429 130.668 24.0753C130.406 24.4077 130.048 24.6662 129.594 24.8509C129.139 25.0327 128.619 25.1236 128.034 25.1236C127.099 25.1236 126.362 24.9318 125.822 24.5483C125.286 24.1619 124.979 23.6449 124.902 22.9972L126.96 22.946C127.006 23.1847 127.124 23.3665 127.314 23.4915C127.504 23.6165 127.747 23.679 128.043 23.679C128.31 23.679 128.527 23.6293 128.695 23.5298C128.862 23.4304 128.947 23.2983 128.95 23.1335C128.947 22.9858 128.882 22.8679 128.754 22.7798C128.626 22.6889 128.426 22.6179 128.153 22.5668L127.011 22.3494C126.355 22.2301 125.866 22.0099 125.545 21.6889C125.224 21.3651 125.065 20.9531 125.068 20.4531C125.065 20.0156 125.182 19.642 125.418 19.3324C125.653 19.0199 125.989 18.7812 126.423 18.6165C126.858 18.4517 127.371 18.3693 127.962 18.3693C128.848 18.3693 129.547 18.5554 130.058 18.9276C130.57 19.2969 130.852 19.8054 130.906 20.4531Z" fill="#3C5DD1"/>
</svg>
